<svg xmlns="http://www.w3.org/2000/svg" width="108" height="32" viewBox="0 0 108 32"><defs><linearGradient id="a" x1="60.992%" x2="26.528%" y1="4.835%" y2="71.735%"><stop offset="0%" stop-color="#00A0FF"/><stop offset="1%" stop-color="#00A1FF"/><stop offset="26%" stop-color="#00BEFF"/><stop offset="51%" stop-color="#00D2FF"/><stop offset="76%" stop-color="#00DFFF"/><stop offset="100%" stop-color="#00E3FF"/></linearGradient><linearGradient id="b" x1="107.635%" x2="-130.515%" y1="50%" y2="50%"><stop offset="0%" stop-color="#FFE000"/><stop offset="41%" stop-color="#FFBD00"/><stop offset="78%" stop-color="orange"/><stop offset="100%" stop-color="#FF9C00"/></linearGradient><linearGradient id="c" x1="86.248%" x2="-49.851%" y1="30.919%" y2="135.711%"><stop offset="0%" stop-color="#FF3A44"/><stop offset="100%" stop-color="#C31162"/></linearGradient><linearGradient id="d" x1="-18.801%" x2="42.097%" y1="-11.882%" y2="35.083%"><stop offset="0%" stop-color="#32A071"/><stop offset="7%" stop-color="#2DA771"/><stop offset="48%" stop-color="#15CF74"/><stop offset="80%" stop-color="#06E775"/><stop offset="100%" stop-color="#00F076"/></linearGradient></defs><g fill="none" fill-rule="nonzero"><rect width="108" height="32" fill="#1A1A1A" rx="4"/><path fill="#FFF" d="M61.81 17.4a2.36 2.36 0 0 1 1.66.63l.13.13h.05v-.55h1.41v6.11c0 2.54-1.49 3.54-3.24 3.54a3.24 3.24 0 0 1-2.92-1.821l-.08-.179 1.3-.54a1.88 1.88 0 0 0 1.71 1.21c1.067 0 1.752-.635 1.815-1.818l.005-.182v-.49h-.05a2.32 2.32 0 0 1-1.79.77 3.41 3.41 0 0 1 0-6.81zm38.85.17L96.56 27H95l1.51-3.34-2.66-6.06h1.61l1.78 4.34h.05L99 17.6l1.66-.03zm-46.15-.17a3.35 3.35 0 0 1 3.42 3.4 3.4 3.4 0 1 1-3.42-3.4zm-7.45 0a3.35 3.35 0 0 1 3.42 3.4 3.4 3.4 0 1 1-3.42-3.4zm-8.89-3.78a5 5 0 0 1 3.436 1.286l.184.174-1 1a3.68 3.68 0 0 0-2.6-1 3.84 3.84 0 0 0 0 7.68c1 .04 1.97-.345 2.67-1.06a3 3 0 0 0 .765-1.595l.025-.225H38.2v-1.44l4.83-.01a4.7 4.7 0 0 1 .08.9 4.77 4.77 0 0 1-1.25 3.38 4.83 4.83 0 0 1-3.69 1.48 5.285 5.285 0 0 1 0-10.57zm33.37 3.77a3.16 3.16 0 0 1 2.846 1.992l.064.178.15.44-4.54 1.85a1.73 1.73 0 0 0 1.65 1 1.94 1.94 0 0 0 1.593-.808l.087-.132 1.16.77a3.38 3.38 0 0 1-2.84 1.51 3.33 3.33 0 0 1-3.38-3.4 3.23 3.23 0 0 1 3.21-3.4zm21.302.696a2.74 2.74 0 0 1 .884 1.869l.004.195V24h-1.44v-.84h-.05a2.11 2.11 0 0 1-1.9 1 2.31 2.31 0 0 1-2.48-2.2c0-1.47 1.45-2.25 2.88-2.25a3.3 3.3 0 0 1 1.351.288l.209.102V20a1.44 1.44 0 0 0-1.61-1.27 1.41 1.41 0 0 0-1.288.611l-.072.119-1.33-.55a2.8 2.8 0 0 1 2.474-1.535l.196.005h.04a2.74 2.74 0 0 1 2.132.706zM84.28 15.5a3.11 3.11 0 0 1-2.638 4.716l-.202-.005h-2.08V24h-1.49V14h3.57a3.11 3.11 0 0 1 2.84 1.5zM87 14v10h-1.45V14H87zm-19.4 0v10h-1.5V14h1.5zm-22.177 5.375a2.07 2.07 0 0 0 1.468 3.489l.169-.004v.01A2 2 0 0 0 49 20.8a2.07 2.07 0 0 0-3.577-1.425zm16.517-.635a2.07 2.07 0 0 0-.157 4.099l.157.021v.01a1.9 1.9 0 0 0 1.82-2.06 1.92 1.92 0 0 0-1.82-2.07zm-9.094.644a2.07 2.07 0 0 0 1.495 3.481l.169-.005v.01a2 2 0 0 0 1.92-2.07 2.07 2.07 0 0 0-3.584-1.416zM90.9 20.94c-.73 0-1.58.3-1.58 1.07 0 .57.592.816 1.07.847l.1.003h.04a1.81 1.81 0 0 0 1.73-1.59 2.66 2.66 0 0 0-1.36-.33zm-19.19-2.242l-.13.002a1.87 1.87 0 0 0-1.784 1.833l.004.167 3.04-1.28a1.32 1.32 0 0 0-1-.71l-.13-.012zm9.77-3.308h-2.12v3.43h2.12a1.715 1.715 0 0 0 0-3.43zM39.21 5.487c.66 0 1.294.264 1.76.733a2.45 2.45 0 0 1 .7 1.78A2.46 2.46 0 0 1 41 9.78a2.49 2.49 0 0 1-3.52 0A2.45 2.45 0 0 1 36.74 8a2.45 2.45 0 0 1 .71-1.78 2.48 2.48 0 0 1 1.76-.733zm-4.45.113a1.52 1.52 0 0 1 1.05.4 1.39 1.39 0 0 1 0 2 1.51 1.51 0 0 1-1.06.41h-1l-.01 1.99h-.62V5.6h1.64zm9.51 0a1.41 1.41 0 0 1 1 .37c.27.237.42.581.41.94a1 1 0 0 1-.18.6 1.11 1.11 0 0 1-.359.342l-.111.058c.231.079.433.225.58.42.151.194.232.434.23.68a1.26 1.26 0 0 1-.43 1c-.273.25-.63.39-1 .39h-1.88V5.6h1.74zm3 0v4.8h-.62V5.6h.62zm3.92 0l-.02.59H49v1.52h2v.58h-2v1.52h2.19v.59h-2.8V5.6h2.8zm2.58 0a1.52 1.52 0 0 1 1.06.4c.547.501.6 1.344.12 1.91a1.43 1.43 0 0 1-.684.456l-.136.034 1.35 2h-.73l-1.31-1.94h-.68v1.94h-.63V5.6h1.64zm5.39 0v.64l-2.57 3.57h2.58v.59h-3.29v-.64l2.55-3.57H56V5.6h3.16zm5.51 0v.64l-2.55 3.57h2.58v.59h-3.3v-.64L64 6.19h-2.49V5.6h3.16zM37.86 6.62A1.88 1.88 0 0 0 37.37 8a1.88 1.88 0 0 0 .53 1.38h.04a1.85 1.85 0 0 0 2.61 0A1.88 1.88 0 0 0 41 8a1.88 1.88 0 0 0-.53-1.38 1.85 1.85 0 0 0-2.61 0zm6.51 1.6h-1.22v1.59h1.24a.74.74 0 0 0 .61-.25.8.8 0 0 0 .19-.56.81.81 0 0 0-.82-.78zm9.42-2.06h-1l-.04 1.72h1a.91.91 0 0 0 .63-.24.79.79 0 0 0 .26-.64.84.84 0 0 0-.23-.58.8.8 0 0 0-.62-.26zm-19.05.04h-1v1.67h1a.8.8 0 0 0 .62-.26.83.83 0 0 0 0-1.15.8.8 0 0 0-.62-.26zm9.55 0h-1.14v1.46h1.12a.72.72 0 0 0 .56-.23.72.72 0 0 0 0-1 .69.69 0 0 0-.54-.23z"/><path fill="url(#a)" d="M8.35 6A1.6 1.6 0 0 0 8 7.15v17.7A1.6 1.6 0 0 0 8.35 26l.06.06 9.91-9.91v-.23L8.41 6h-.06z"/><path fill="url(#b)" d="M21.62 19.42l-3.3-3.31v-.23l3.3-3.3h.07l3.91 2.22a1.21 1.21 0 0 1 0 2.31l-3.9 2.27-.08.04z"/><path fill="url(#c)" d="M21.7 19.38L18.32 16l-10 10A1.3 1.3 0 0 0 10 26l11.7-6.62"/><path fill="url(#d)" d="M21.7 12.62L10 6a1.3 1.3 0 0 0-1.65 0l10 10 3.35-3.38z"/><path fill="#000" d="M21.62 19.31L10 25.9a1.33 1.33 0 0 1-1.6 0l-.05.1.06.06A1.33 1.33 0 0 0 10 26l11.7-6.62-.08-.07z" opacity=".2"/><path fill="#000" d="M8.35 25.85A1.6 1.6 0 0 1 8 24.73v.12A1.6 1.6 0 0 0 8.35 26l.06-.06-.06-.09zM25.61 17l-4 2.27.07.07 3.91-2.22a1.4 1.4 0 0 0 .86-1.12 1.49 1.49 0 0 1-.84 1z" opacity=".12"/><path fill="#FFF" d="M10 6.1L25.61 15c.419.186.729.555.84 1a1.4 1.4 0 0 0-.84-1.16L10 6c-1.12-.64-2-.11-2 1.17v.12C8 6 8.89 5.46 10 6.1z" opacity=".25"/></g></svg>