<svg xmlns="http://www.w3.org/2000/svg" width="108" height="32" viewBox="0 0 108 32"><g fill="none" fill-rule="nonzero"><path fill="#1A1A1A" d="M104.16 32H3.78A3.79 3.79 0 0 1 0 28.21V3.78A3.79 3.79 0 0 1 3.78 0h100.38A3.84 3.84 0 0 1 108 3.78v24.43a3.84 3.84 0 0 1-3.84 3.79z"/><path fill="#FFF" d="M24.1 15.84a4.64 4.64 0 0 1 2.21-3.89 4.75 4.75 0 0 0-3.74-2c-1.57-.17-3.1.94-3.9.94-.8 0-2.05-.93-3.38-.9a5 5 0 0 0-4.19 2.56c-1.81 3.14-.46 7.75 1.28 10.29.87 1.24 1.88 2.63 3.21 2.58 1.33-.05 1.79-.83 3.35-.83s2 .83 3.37.8c1.37-.03 2.27-1.25 3.11-2.5A10.27 10.27 0 0 0 26.84 20a4.48 4.48 0 0 1-2.74-4.16zm-2.56-7.59a4.56 4.56 0 0 0 1-3.27 4.65 4.65 0 0 0-3 1.56 4.34 4.34 0 0 0-1.07 3.15 3.84 3.84 0 0 0 3.07-1.44zm21.38 16.96H41.1l-1-3.13h-3.45l-.95 3.13h-1.77l3.43-10.65h2.12l3.44 10.65zm-3.12-4.44L38.9 18c-.093-.287-.273-.953-.54-2-.107.453-.277 1.12-.51 2l-.88 2.78 2.83-.01zm11.93.51a4.36 4.36 0 0 1-1.06 3.1 3.1 3.1 0 0 1-2.35 1 2.35 2.35 0 0 1-2.18-1.09v4H44.4v-8.23c0-.82-.02-1.663-.06-2.53h1.5l.1 1.22a3 3 0 0 1 4.86-.3c.643.8.973 1.805.93 2.83zm-1.73.06a3.16 3.16 0 0 0-.51-1.85 1.75 1.75 0 0 0-1.49-.75 1.77 1.77 0 0 0-1.14.42 1.94 1.94 0 0 0-.67 1.1 2.23 2.23 0 0 0-.08.52v1.28a2.05 2.05 0 0 0 .51 1.41A1.7 1.7 0 0 0 48 24a1.75 1.75 0 0 0 1.5-.74 3.27 3.27 0 0 0 .5-1.92zm10.56-.06a4.36 4.36 0 0 1-1.06 3.1 3.09 3.09 0 0 1-2.35 1A2.35 2.35 0 0 1 55 24.3v4h-1.77v-8.24c0-.82-.02-1.663-.06-2.53h1.5l.1 1.22a3 3 0 0 1 4.86-.3c.642.8.972 1.805.93 2.83zm-1.74.06a3.16 3.16 0 0 0-.51-1.85 1.75 1.75 0 0 0-1.48-.76 1.77 1.77 0 0 0-1.15.42 1.94 1.94 0 0 0-.67 1.1 2.28 2.28 0 0 0-.08.52v1.28a2.06 2.06 0 0 0 .51 1.41c.338.384.83.597 1.34.58a1.75 1.75 0 0 0 1.5-.74 3.27 3.27 0 0 0 .54-1.96zm11.61.89a2.84 2.84 0 0 1-.95 2.21 4.19 4.19 0 0 1-2.9.93 5.07 5.07 0 0 1-2.76-.66l.4-1.42a4.67 4.67 0 0 0 2.46.68 2.33 2.33 0 0 0 1.5-.43c.354-.28.554-.71.54-1.16a1.49 1.49 0 0 0-.44-1.09 4.11 4.11 0 0 0-1.47-.82c-1.867-.667-2.8-1.683-2.8-3.05a2.7 2.7 0 0 1 1-2.15 3.87 3.87 0 0 1 2.61-.84 5.17 5.17 0 0 1 2.42.51l-.43 1.39a4.19 4.19 0 0 0-2-.49 2.07 2.07 0 0 0-1.41.44 1.26 1.26 0 0 0-.43 1 1.3 1.3 0 0 0 .49 1c.47.354.993.63 1.55.82a5.25 5.25 0 0 1 2 1.29 2.7 2.7 0 0 1 .62 1.84zm5.64-3.41h-1.88v3.73c0 .947.333 1.42 1 1.42a3.08 3.08 0 0 0 .76-.08v1.3a3.89 3.89 0 0 1-1.33.19 2 2 0 0 1-1.58-.62 3 3 0 0 1-.57-2.07v-3.88H71.4v-1.27h1.12v-1.41l1.67-.51v1.91h1.88v1.29zm8.48 2.49a4.21 4.21 0 0 1-1 2.91 3.61 3.61 0 0 1-2.81 1.17A3.43 3.43 0 0 1 78 24.26a4.08 4.08 0 0 1-1-2.83 4.18 4.18 0 0 1 1-2.92 3.58 3.58 0 0 1 2.79-1.14 3.51 3.51 0 0 1 2.72 1.12 4 4 0 0 1 1.04 2.82zm-1.77.05a3.46 3.46 0 0 0-.46-1.82 1.69 1.69 0 0 0-1.53-.92 1.71 1.71 0 0 0-1.56.92 3.53 3.53 0 0 0-.46 1.85 3.46 3.46 0 0 0 .46 1.82 1.74 1.74 0 0 0 3.08 0 3.46 3.46 0 0 0 .47-1.84v-.01zM90.1 19a3 3 0 0 0-.54 0 1.61 1.61 0 0 0-1.39.68c-.3.449-.45.98-.43 1.52v4H86v-5.26c0-.887-.02-1.693-.06-2.42h1.48l.12 1.48c.16-.48.455-.904.85-1.22a2.06 2.06 0 0 1 1.23-.41 2.64 2.64 0 0 1 .43 0L90.1 19zm7.63 2a4 4 0 0 1-.06.77h-5.12a2.23 2.23 0 0 0 .74 1.74 2.54 2.54 0 0 0 1.67.54A5.65 5.65 0 0 0 97 23.7l.27 1.18a6.4 6.4 0 0 1-2.57.48 3.72 3.72 0 0 1-2.8-1.05 3.87 3.87 0 0 1-1-2.82 4.4 4.4 0 0 1 .95-2.89 3.27 3.27 0 0 1 2.68-1.23A2.86 2.86 0 0 1 97 18.6a4.14 4.14 0 0 1 .73 2.4zm-1.63-.44a2.32 2.32 0 0 0-.33-1.31 1.49 1.49 0 0 0-1.36-.71 1.62 1.62 0 0 0-1.36.69 2.55 2.55 0 0 0-.51 1.33h3.56zM38.29 7a1.58 1.58 0 0 1-.43 1.16 2.14 2.14 0 0 1-1.61.57 2.32 2.32 0 0 1-.48 0v2h-.84V5.6a7.76 7.76 0 0 1 1.37-.11 2.28 2.28 0 0 1 1.5.43c.313.271.492.666.49 1.08zm-.84 0a.86.86 0 0 0-.29-.7 1.24 1.24 0 0 0-.82-.24 2.82 2.82 0 0 0-.56 0v2a2 2 0 0 0 .49 0 1.3 1.3 0 0 0 .87-.27.94.94 0 0 0 .32-.71L37.45 7zM43 8.84a2.07 2.07 0 0 1-.5 1.43 1.77 1.77 0 0 1-1.38.57 1.69 1.69 0 0 1-1.32-.55 2 2 0 0 1-.49-1.39 2 2 0 0 1 .51-1.44 1.76 1.76 0 0 1 1.37-.56 1.72 1.72 0 0 1 1.34.55A2 2 0 0 1 43 8.84zm-.87 0a1.71 1.71 0 0 0-.22-.9.83.83 0 0 0-.75-.45.84.84 0 0 0-.77.45 1.73 1.73 0 0 0-.22.91c-.01.315.065.626.22.9a.85.85 0 0 0 .76.45.84.84 0 0 0 .75-.46 1.7 1.7 0 0 0 .21-.87l.02-.03zm5.69-.02a2.14 2.14 0 0 1-.53 1.52 1.49 1.49 0 0 1-1.14.5 1.27 1.27 0 0 1-1.15-.67v.58h-.71v-5.5h.84v2.29a1.29 1.29 0 0 1 1.2-.63c.43-.01.842.183 1.11.52.285.405.42.897.38 1.39zm-.85 0a1.52 1.52 0 0 0-.25-.9.89.89 0 0 0-1.3-.18 1 1 0 0 0-.33.54 1.14 1.14 0 0 0 0 .26v.66a.94.94 0 0 0 .26.67.85.85 0 0 0 .65.28.86.86 0 0 0 .74-.36 1.59 1.59 0 0 0 .26-.94l-.03-.03zM50 5.86a.48.48 0 0 1-.15.36.53.53 0 0 1-.38.14.48.48 0 0 1-.35-.14.49.49 0 0 1-.12-.36.47.47 0 0 1 .15-.36.55.55 0 0 1 .73 0 .47.47 0 0 1 .12.36zm-.09 4.9h-.84V7h.84v3.76zm4.58-2.07a2 2 0 0 1 0 .38h-2.55a1.1 1.1 0 0 0 .36.85c.234.181.525.273.82.26a2.77 2.77 0 0 0 1-.18l.13.58c-.4.162-.829.24-1.26.23a1.83 1.83 0 0 1-1.38-.52 1.9 1.9 0 0 1-.5-1.38 2.16 2.16 0 0 1 .49-1.41c.32-.398.81-.62 1.32-.6a1.4 1.4 0 0 1 1.23.6 2 2 0 0 1 .34 1.19zm-.8-.22a1.14 1.14 0 0 0-.16-.64.73.73 0 0 0-.67-.35.8.8 0 0 0-.67.34 1.26 1.26 0 0 0-.25.65h1.75zm4.01-.75h-.26a.79.79 0 0 0-.68.33 1.26 1.26 0 0 0-.21.74v2h-.84V8.17 6.98h.73v.72a1.27 1.27 0 0 1 .42-.6 1 1 0 0 1 .61-.2h.21v.8l.02.02zm3.76 3.04h-3.07v-.49l1.51-2c.093-.127.263-.33.51-.61h-1.87V7h2.89v.5L60 9.45c-.167.213-.337.417-.51.61h2v.67l-.03.03zM69.89 7l-1.18 3.77h-.77l-.49-1.64a12.26 12.26 0 0 1-.3-1.22 8.92 8.92 0 0 1-.3 1.22l-.52 1.64h-.78L64.43 7h.86l.43 1.79c.1.427.187.83.26 1.21.06-.313.163-.713.31-1.2l.54-1.8h.68L68 8.75c.127.427.227.84.3 1.24.065-.418.151-.832.26-1.24L69.07 7h.82z"/></g></svg>